<svg width="875" height="530" viewBox="0 0 875 530" fill="none" xmlns="http://www.w3.org/2000/svg">
<rect x="27" y="33" width="821" height="468" fill="#B6CCA1"/>
<rect x="73" y="77" width="730" height="380" fill="#D7FCD4"/>
<path d="M136 462.5C136 453.636 134.254 444.858 130.862 436.669C127.47 428.479 122.498 421.038 116.23 414.77C109.962 408.502 102.521 403.53 94.3311 400.138C86.1417 396.746 77.3642 395 68.5 395L68.5 462.5H136Z" fill="#B6CCA1"/>
<path d="M67.5 136C76.3642 136 85.1416 134.254 93.3311 130.862C101.521 127.47 108.962 122.498 115.23 116.23C121.498 109.962 126.47 102.521 129.862 94.3311C133.254 86.1417 135 77.3642 135 68.5L67.5 68.5L67.5 136Z" fill="#B6CCA1"/>
<path d="M740 67.5C740 76.3642 741.746 85.1417 745.138 93.3311C748.53 101.521 753.502 108.962 759.77 115.23C766.038 121.498 773.479 126.47 781.669 129.862C789.858 133.254 798.636 135 807.5 135L807.5 67.5L740 67.5Z" fill="#B6CCA1"/>
<path d="M807.5 395C798.636 395 789.858 396.746 781.669 400.138C773.479 403.53 766.038 408.502 759.77 414.77C753.502 421.038 748.53 428.479 745.138 436.669C741.746 444.858 740 453.636 740 462.5L807.5 462.5L807.5 395Z" fill="#B6CCA1"/>
<circle cx="185" cy="267" r="49" fill="#B6CCA1"/>
<circle cx="691" cy="267" r="49" fill="#B6CCA1"/>
<circle cx="438" cy="267" r="146" fill="#B6CCA1"/>
</svg>
