<svg width="291" height="346" viewBox="0 0 291 346" fill="none" xmlns="http://www.w3.org/2000/svg">
<path d="M75.25 222.577C75.25 242.619 58.4047 258.866 37.625 258.866C16.8453 258.866 0 242.619 0 222.577C0 202.536 16.8453 186.289 37.625 186.289C58.4047 186.289 75.25 202.536 75.25 222.577Z" fill="#C4C4C4"/>
<path d="M219.085 197.289C219.085 217.33 202.239 233.577 181.46 233.577C160.68 233.577 143.835 217.33 143.835 197.289C143.835 177.247 160.68 161 181.46 161C202.239 161 219.085 177.247 219.085 197.289Z" fill="#C4C4C4"/>
<path d="M291 36.2886C291 56.3303 274.155 72.5772 253.375 72.5772C232.595 72.5772 215.75 56.3303 215.75 36.2886C215.75 16.247 232.595 0 253.375 0C274.155 0 291 16.247 291 36.2886Z" fill="#C4C4C4"/>
<path d="M146.25 214.805C146.25 234.847 129.405 251.093 108.625 251.093C87.8453 251.093 71 234.847 71 214.805C71 194.763 87.8453 178.516 108.625 178.516C129.405 178.516 146.25 194.763 146.25 214.805Z" fill="#C4C4C4"/>
<path d="M0 223.037H75.25V338.793H0V223.037Z" fill="#C4C4C4"/>
<path d="M143.5 199.789H218.75V339.289H143.5V199.789Z" fill="#C4C4C4"/>
<path d="M215.75 36.748H291V339H215.75V36.748Z" fill="#C4C4C4"/>
<path d="M71 215.264H146.25V339.289H71V215.264Z" fill="#C4C4C4"/>
<path d="M0 300H291V346H0V300Z" fill="#C4C4C4"/>
</svg>
