<svg width="421" height="578" viewBox="0 0 421 578" fill="none" xmlns="http://www.w3.org/2000/svg">
<path d="M0 30C0 13.4315 13.4315 0 30 0H391C407.569 0 421 13.4315 421 30V578H0V30Z" fill="white"/>
<path d="M15.5 44C15.5 28.8122 27.8122 16.5 43 16.5H379C394.188 16.5 406.5 28.8122 406.5 44V577.5H15.5V44Z" fill="black" stroke="black"/>
<path d="M23 52C23 36.536 35.536 24 51 24H371C386.464 24 399 36.536 399 52V578H23V52Z" fill="#30011E"/>
<path d="M23 52C23 36.536 35.536 24 51 24H371C386.464 24 399 36.536 399 52V85H23V52Z" fill="#B6CCA1"/>
<path d="M38 125C38 113.954 46.9543 105 58 105H363C374.046 105 383 113.954 383 125V578H38V125Z" fill="#ECEDEE"/>
<path d="M59 284.902C70.6667 272.902 101.8 256.102 133 284.902C164.2 313.702 191.333 296.902 201 284.902C212.667 273.902 243.8 258.502 275 284.902C306.2 311.302 338 295.902 350 284.902" stroke="#545454" stroke-opacity="0.25" stroke-width="7"/>
<path d="M59 333.902C70.6667 321.902 101.8 305.102 133 333.902C164.2 362.702 191.333 345.902 201 333.902C212.667 322.902 243.8 307.502 275 333.902C306.2 360.302 338 344.902 350 333.902" stroke="#545454" stroke-opacity="0.25" stroke-width="7"/>
<path d="M59 382.902C70.6667 370.902 101.8 354.102 133 382.902C164.2 411.702 191.333 394.902 201 382.902C212.667 371.902 243.8 356.502 275 382.902C306.2 409.302 338 393.902 350 382.902" stroke="#545454" stroke-opacity="0.25" stroke-width="7"/>
<path d="M59 431.902C70.6667 419.902 101.8 403.102 133 431.902C164.2 460.702 191.333 443.902 201 431.902C212.667 420.902 243.8 405.502 275 431.902C306.2 458.302 338 442.902 350 431.902" stroke="#545454" stroke-opacity="0.25" stroke-width="7"/>
<path d="M59 480.902C70.6667 468.902 101.8 452.102 133 480.902C164.2 509.702 191.333 492.902 201 480.902C212.667 469.902 243.8 454.502 275 480.902C306.2 507.302 338 491.902 350 480.902" stroke="#545454" stroke-opacity="0.25" stroke-width="7"/>
<rect x="59" y="130" width="110" height="110" rx="20" fill="#545454" fill-opacity="0.25"/>
</svg>
