<svg width="494" height="100" viewBox="0 0 494 100" fill="none" xmlns="http://www.w3.org/2000/svg">
<circle cx="50" cy="50" r="50" fill="#ECEDEE"/>
<circle cx="247" cy="50" r="50" fill="#ECEDEE"/>
<circle cx="444" cy="50" r="50" fill="#ECEDEE"/>
<path d="M64.744 67.8V72.696H37.096V67.8H48.148V32.628C48.148 31.572 48.184 30.504 48.256 29.424L39.076 37.308C38.764 37.572 38.452 37.74 38.14 37.812C37.828 37.86 37.54 37.86 37.276 37.812C37.012 37.764 36.76 37.668 36.52 37.524C36.304 37.38 36.136 37.224 36.016 37.056L34 34.284L49.372 21H54.592V67.8H64.744Z" fill="#30011E"/>
<path d="M262.532 66.916C263.228 66.916 263.78 67.12 264.188 67.528C264.596 67.936 264.8 68.464 264.8 69.112V73H230.384V70.804C230.384 70.348 230.48 69.88 230.672 69.4C230.864 68.92 231.164 68.476 231.572 68.068L248.096 51.472C249.464 50.08 250.712 48.748 251.84 47.476C252.968 46.18 253.928 44.884 254.72 43.588C255.512 42.292 256.124 40.984 256.556 39.664C256.988 38.32 257.204 36.892 257.204 35.38C257.204 33.868 256.964 32.548 256.484 31.42C256.004 30.268 255.344 29.32 254.504 28.576C253.688 27.832 252.716 27.28 251.588 26.92C250.46 26.536 249.248 26.344 247.952 26.344C246.632 26.344 245.42 26.536 244.316 26.92C243.212 27.304 242.228 27.844 241.364 28.54C240.524 29.212 239.816 30.016 239.24 30.952C238.664 31.888 238.256 32.92 238.016 34.048C237.728 34.888 237.332 35.452 236.828 35.74C236.348 36.004 235.664 36.076 234.776 35.956L231.428 35.38C231.764 33.028 232.412 30.952 233.372 29.152C234.356 27.328 235.58 25.804 237.044 24.58C238.532 23.356 240.224 22.432 242.12 21.808C244.016 21.16 246.068 20.836 248.276 20.836C250.46 20.836 252.5 21.16 254.396 21.808C256.292 22.456 257.936 23.404 259.328 24.652C260.72 25.876 261.812 27.376 262.604 29.152C263.396 30.928 263.792 32.944 263.792 35.2C263.792 37.12 263.504 38.908 262.928 40.564C262.352 42.196 261.572 43.756 260.588 45.244C259.604 46.732 258.464 48.184 257.168 49.6C255.896 51.016 254.54 52.444 253.1 53.884L239.492 67.78C240.452 67.516 241.424 67.312 242.408 67.168C243.392 67 244.34 66.916 245.252 66.916H262.532Z" fill="#30011E"/>
<path d="M428.584 38.544C428.92 36.192 429.568 34.116 430.528 32.316C431.488 30.492 432.7 28.968 434.164 27.744C435.652 26.52 437.344 25.596 439.24 24.972C441.16 24.324 443.224 24 445.432 24C447.616 24 449.632 24.312 451.48 24.936C453.328 25.56 454.912 26.448 456.232 27.6C457.576 28.752 458.62 30.144 459.364 31.776C460.108 33.408 460.48 35.22 460.48 37.212C460.48 38.844 460.264 40.308 459.832 41.604C459.424 42.876 458.824 43.992 458.032 44.952C457.264 45.912 456.328 46.728 455.224 47.4C454.12 48.072 452.884 48.624 451.516 49.056C454.876 49.92 457.396 51.408 459.076 53.52C460.78 55.608 461.632 58.224 461.632 61.368C461.632 63.744 461.176 65.88 460.264 67.776C459.376 69.672 458.152 71.292 456.592 72.636C455.032 73.956 453.208 74.976 451.12 75.696C449.056 76.392 446.836 76.74 444.46 76.74C441.724 76.74 439.384 76.404 437.44 75.732C435.496 75.036 433.852 74.088 432.508 72.888C431.164 71.688 430.06 70.272 429.196 68.64C428.332 66.984 427.6 65.196 427 63.276L429.772 62.124C430.492 61.812 431.188 61.728 431.86 61.872C432.556 62.016 433.06 62.412 433.372 63.06C433.684 63.732 434.068 64.536 434.524 65.472C435.004 66.408 435.652 67.308 436.468 68.172C437.284 69.036 438.316 69.768 439.564 70.368C440.836 70.968 442.444 71.268 444.388 71.268C446.188 71.268 447.76 70.98 449.104 70.404C450.472 69.804 451.6 69.036 452.488 68.1C453.4 67.164 454.084 66.12 454.54 64.968C454.996 63.816 455.224 62.676 455.224 61.548C455.224 60.156 455.044 58.884 454.684 57.732C454.324 56.58 453.652 55.584 452.668 54.744C451.684 53.904 450.328 53.244 448.6 52.764C446.896 52.284 444.7 52.044 442.012 52.044V47.4C444.22 47.376 446.092 47.136 447.628 46.68C449.188 46.224 450.448 45.6 451.408 44.808C452.392 44.016 453.1 43.068 453.532 41.964C453.988 40.86 454.216 39.636 454.216 38.292C454.216 36.804 453.976 35.508 453.496 34.404C453.04 33.3 452.404 32.388 451.588 31.668C450.772 30.948 449.8 30.408 448.672 30.048C447.568 29.688 446.368 29.508 445.072 29.508C443.776 29.508 442.564 29.7 441.436 30.084C440.332 30.468 439.348 31.008 438.484 31.704C437.644 32.376 436.936 33.18 436.36 34.116C435.784 35.052 435.376 36.084 435.136 37.212C434.824 38.052 434.428 38.616 433.948 38.904C433.492 39.168 432.82 39.24 431.932 39.12L428.584 38.544Z" fill="#30011E"/>
</svg>
