<svg width="100" height="100" viewBox="0 0 100 100" fill="none" xmlns="http://www.w3.org/2000/svg">
<circle cx="50" cy="50" r="50" fill="#B68F40"/>
<path d="M34.584 38.544C34.92 36.192 35.568 34.116 36.528 32.316C37.488 30.492 38.7 28.968 40.164 27.744C41.652 26.52 43.344 25.596 45.24 24.972C47.16 24.324 49.224 24 51.432 24C53.616 24 55.632 24.312 57.48 24.936C59.328 25.56 60.912 26.448 62.232 27.6C63.576 28.752 64.62 30.144 65.364 31.776C66.108 33.408 66.48 35.22 66.48 37.212C66.48 38.844 66.264 40.308 65.832 41.604C65.424 42.876 64.824 43.992 64.032 44.952C63.264 45.912 62.328 46.728 61.224 47.4C60.12 48.072 58.884 48.624 57.516 49.056C60.876 49.92 63.396 51.408 65.076 53.52C66.78 55.608 67.632 58.224 67.632 61.368C67.632 63.744 67.176 65.88 66.264 67.776C65.376 69.672 64.152 71.292 62.592 72.636C61.032 73.956 59.208 74.976 57.12 75.696C55.056 76.392 52.836 76.74 50.46 76.74C47.724 76.74 45.384 76.404 43.44 75.732C41.496 75.036 39.852 74.088 38.508 72.888C37.164 71.688 36.06 70.272 35.196 68.64C34.332 66.984 33.6 65.196 33 63.276L35.772 62.124C36.492 61.812 37.188 61.728 37.86 61.872C38.556 62.016 39.06 62.412 39.372 63.06C39.684 63.732 40.068 64.536 40.524 65.472C41.004 66.408 41.652 67.308 42.468 68.172C43.284 69.036 44.316 69.768 45.564 70.368C46.836 70.968 48.444 71.268 50.388 71.268C52.188 71.268 53.76 70.98 55.104 70.404C56.472 69.804 57.6 69.036 58.488 68.1C59.4 67.164 60.084 66.12 60.54 64.968C60.996 63.816 61.224 62.676 61.224 61.548C61.224 60.156 61.044 58.884 60.684 57.732C60.324 56.58 59.652 55.584 58.668 54.744C57.684 53.904 56.328 53.244 54.6 52.764C52.896 52.284 50.7 52.044 48.012 52.044V47.4C50.22 47.376 52.092 47.136 53.628 46.68C55.188 46.224 56.448 45.6 57.408 44.808C58.392 44.016 59.1 43.068 59.532 41.964C59.988 40.86 60.216 39.636 60.216 38.292C60.216 36.804 59.976 35.508 59.496 34.404C59.04 33.3 58.404 32.388 57.588 31.668C56.772 30.948 55.8 30.408 54.672 30.048C53.568 29.688 52.368 29.508 51.072 29.508C49.776 29.508 48.564 29.7 47.436 30.084C46.332 30.468 45.348 31.008 44.484 31.704C43.644 32.376 42.936 33.18 42.36 34.116C41.784 35.052 41.376 36.084 41.136 37.212C40.824 38.052 40.428 38.616 39.948 38.904C39.492 39.168 38.82 39.24 37.932 39.12L34.584 38.544Z" fill="#30011E"/>
</svg>
