<svg width="100" height="100" viewBox="0 0 100 100" fill="none" xmlns="http://www.w3.org/2000/svg">
<circle cx="50" cy="50" r="50" fill="#ECEDEE"/>
<path d="M65.532 66.916C66.228 66.916 66.78 67.12 67.188 67.528C67.596 67.936 67.8 68.464 67.8 69.112V73H33.384V70.804C33.384 70.348 33.48 69.88 33.672 69.4C33.864 68.92 34.164 68.476 34.572 68.068L51.096 51.472C52.464 50.08 53.712 48.748 54.84 47.476C55.968 46.18 56.928 44.884 57.72 43.588C58.512 42.292 59.124 40.984 59.556 39.664C59.988 38.32 60.204 36.892 60.204 35.38C60.204 33.868 59.964 32.548 59.484 31.42C59.004 30.268 58.344 29.32 57.504 28.576C56.688 27.832 55.716 27.28 54.588 26.92C53.46 26.536 52.248 26.344 50.952 26.344C49.632 26.344 48.42 26.536 47.316 26.92C46.212 27.304 45.228 27.844 44.364 28.54C43.524 29.212 42.816 30.016 42.24 30.952C41.664 31.888 41.256 32.92 41.016 34.048C40.728 34.888 40.332 35.452 39.828 35.74C39.348 36.004 38.664 36.076 37.776 35.956L34.428 35.38C34.764 33.028 35.412 30.952 36.372 29.152C37.356 27.328 38.58 25.804 40.044 24.58C41.532 23.356 43.224 22.432 45.12 21.808C47.016 21.16 49.068 20.836 51.276 20.836C53.46 20.836 55.5 21.16 57.396 21.808C59.292 22.456 60.936 23.404 62.328 24.652C63.72 25.876 64.812 27.376 65.604 29.152C66.396 30.928 66.792 32.944 66.792 35.2C66.792 37.12 66.504 38.908 65.928 40.564C65.352 42.196 64.572 43.756 63.588 45.244C62.604 46.732 61.464 48.184 60.168 49.6C58.896 51.016 57.54 52.444 56.1 53.884L42.492 67.78C43.452 67.516 44.424 67.312 45.408 67.168C46.392 67 47.34 66.916 48.252 66.916H65.532Z" fill="#B6CCA1"/>
</svg>
